<?xml version="1.0" encoding="us-ascii" standalone="no"?><svg xmlns="http://www.w3.org/2000/svg" xmlns:xlink="http://www.w3.org/1999/xlink" contentStyleType="text/css" height="398.9583px" preserveAspectRatio="none" style="width:1114px;height:398px;" version="1.1" viewBox="0 0 1114 398" width="1114.5833px" zoomAndPan="magnify"><defs><linearGradient id="g1cya8b2ecnstq0" x1="50%" x2="50%" y1="0%" y2="100%"><stop offset="0%" stop-color="#FFFFFF"/><stop offset="100%" stop-color="#EDF0F2"/></linearGradient><linearGradient id="g1cya8b2ecnstq1" x1="50%" x2="50%" y1="0%" y2="100%"><stop offset="0%" stop-color="#59B6EC"/><stop offset="100%" stop-color="#2FA4E7"/></linearGradient></defs><g><!--cluster High-Level System Architecture--><g id="cluster_High-Level System Architecture"><path d="M20.8333,16.6667 L268.75,16.6667 A6.25,6.25 0 0 1 272.9167,20.8333 L280.2083,47.8841 L1097.9167,47.8841 A4.1667,4.1667 0 0 1 1102.0833,52.0508 L1102.0833,382.2917 A4.1667,4.1667 0 0 1 1097.9167,386.4583 L20.8333,386.4583 A4.1667,4.1667 0 0 1 16.6667,382.2917 L16.6667,20.8333 A4.1667,4.1667 0 0 1 20.8333,16.6667 " fill="none" style="stroke:#59B6EC;stroke-width:2.0833333333333335;"/><line style="stroke:#59B6EC;stroke-width:2.0833333333333335;" x1="16.6667" x2="280.2083" y1="47.8841" y2="47.8841"/><text fill="#2FA4E7" font-family="Verdana" font-size="12.5" font-weight="bold" lengthAdjust="spacing" textLength="239.5833" x="26.0417" y="35.5611">High-Level System Architecture</text></g><!--cluster Processes--><g id="cluster_Processes"><rect fill="url(#g1cya8b2ecnstq0)" height="116.6667" rx="4.1667" ry="4.1667" style="stroke:#033C73;stroke-width:2.0833333333333335;" width="639.5833" x="145.8333" y="68.75"/><path d="M244.7917,68.75 L244.7917,86.4258 L234.375,96.8424 L145.8333,96.8424 " fill="none" style="stroke:#033C73;stroke-width:2.0833333333333335;"/><text fill="#033C73" font-family="Verdana" font-size="12.5" font-weight="bold" lengthAdjust="spacing" textLength="78.125" x="154.1667" y="86.6028">Processes</text></g><!--cluster Hardware and External Communication--><g id="cluster_Hardware and External Communication"><rect fill="url(#g1cya8b2ecnstq0)" height="116.6667" rx="4.1667" ry="4.1667" style="stroke:#033C73;stroke-width:2.0833333333333335;" width="451.0417" x="613.5417" y="244.7917"/><path d="M927.0833,244.7917 L927.0833,262.4674 L916.6667,272.8841 L613.5417,272.8841 " fill="none" style="stroke:#033C73;stroke-width:2.0833333333333335;"/><text fill="#033C73" font-family="Verdana" font-size="12.5" font-weight="bold" lengthAdjust="spacing" textLength="292.7083" x="621.875" y="262.6444">Hardware and External Communication</text></g><!--cluster Shared Memory--><g id="cluster_Shared Memory"><rect fill="url(#g1cya8b2ecnstq0)" height="116.6667" rx="4.1667" ry="4.1667" style="stroke:#033C73;stroke-width:2.0833333333333335;" width="185.4167" x="251.0417" y="244.7917"/><path d="M389.5833,244.7917 L389.5833,262.4674 L379.1667,272.8841 L251.0417,272.8841 " fill="none" style="stroke:#033C73;stroke-width:2.0833333333333335;"/><text fill="#033C73" font-family="Verdana" font-size="12.5" font-weight="bold" lengthAdjust="spacing" textLength="117.7083" x="259.375" y="262.6444">Shared Memory</text></g><!--entity CMOSProc--><g id="elem_CMOSProc"><rect fill="url(#g1cya8b2ecnstq1)" height="56.2174" rx="4.1667" ry="4.1667" style="stroke:#2FA4E7;stroke-width:1.0416666666666667;" width="195.8333" x="351.0417" y="112.5"/><rect fill="url(#g1cya8b2ecnstq1)" height="10.4167" style="stroke:#2FA4E7;stroke-width:1.0416666666666667;" width="15.625" x="526.0417" y="117.7083"/><rect fill="url(#g1cya8b2ecnstq1)" height="2.0833" style="stroke:#2FA4E7;stroke-width:1.0416666666666667;" width="4.1667" x="523.9583" y="119.7917"/><rect fill="url(#g1cya8b2ecnstq1)" height="2.0833" style="stroke:#2FA4E7;stroke-width:1.0416666666666667;" width="4.1667" x="523.9583" y="123.9583"/><text fill="#FFFFFF" font-family="Verdana" font-size="12.5" lengthAdjust="spacing" textLength="143.75" x="371.875" y="150.1444">CMOS Camera Process</text></g><!--entity EBISProc--><g id="elem_EBISProc"><rect fill="url(#g1cya8b2ecnstq1)" height="56.2174" rx="4.1667" ry="4.1667" style="stroke:#2FA4E7;stroke-width:1.0416666666666667;" width="185.4167" x="583.3333" y="112.5"/><rect fill="url(#g1cya8b2ecnstq1)" height="10.4167" style="stroke:#2FA4E7;stroke-width:1.0416666666666667;" width="15.625" x="747.9167" y="117.7083"/><rect fill="url(#g1cya8b2ecnstq1)" height="2.0833" style="stroke:#2FA4E7;stroke-width:1.0416666666666667;" width="4.1667" x="745.8333" y="119.7917"/><rect fill="url(#g1cya8b2ecnstq1)" height="2.0833" style="stroke:#2FA4E7;stroke-width:1.0416666666666667;" width="4.1667" x="745.8333" y="123.9583"/><text fill="#FFFFFF" font-family="Verdana" font-size="12.5" lengthAdjust="spacing" textLength="133.3333" x="604.1667" y="150.1444">EBIS Camera Process</text></g><!--entity RenderProc--><g id="elem_RenderProc"><rect fill="url(#g1cya8b2ecnstq1)" height="56.2174" rx="4.1667" ry="4.1667" style="stroke:#2FA4E7;stroke-width:1.0416666666666667;" width="151.0417" x="163.0208" y="112.5"/><rect fill="url(#g1cya8b2ecnstq1)" height="10.4167" style="stroke:#2FA4E7;stroke-width:1.0416666666666667;" width="15.625" x="293.2292" y="117.7083"/><rect fill="url(#g1cya8b2ecnstq1)" height="2.0833" style="stroke:#2FA4E7;stroke-width:1.0416666666666667;" width="4.1667" x="291.1458" y="119.7917"/><rect fill="url(#g1cya8b2ecnstq1)" height="2.0833" style="stroke:#2FA4E7;stroke-width:1.0416666666666667;" width="4.1667" x="291.1458" y="123.9583"/><text fill="#FFFFFF" font-family="Verdana" font-size="12.5" lengthAdjust="spacing" textLength="98.9583" x="183.8542" y="150.1444">Render Process</text></g><!--entity Micro--><g id="elem_Micro"><rect fill="url(#g1cya8b2ecnstq1)" height="56.2174" rx="4.1667" ry="4.1667" style="stroke:#2FA4E7;stroke-width:1.0416666666666667;" width="146.875" x="630.7292" y="288.5417"/><rect fill="url(#g1cya8b2ecnstq1)" height="10.4167" style="stroke:#2FA4E7;stroke-width:1.0416666666666667;" width="15.625" x="756.7708" y="293.75"/><rect fill="url(#g1cya8b2ecnstq1)" height="2.0833" style="stroke:#2FA4E7;stroke-width:1.0416666666666667;" width="4.1667" x="754.6875" y="295.8333"/><rect fill="url(#g1cya8b2ecnstq1)" height="2.0833" style="stroke:#2FA4E7;stroke-width:1.0416666666666667;" width="4.1667" x="754.6875" y="300"/><text fill="#FFFFFF" font-family="Verdana" font-size="12.5" lengthAdjust="spacing" textLength="94.7917" x="651.5625" y="326.1861">Microcontroller</text></g><!--entity EBISHardware--><g id="elem_EBISHardware"><rect fill="url(#g1cya8b2ecnstq1)" height="56.2174" rx="4.1667" ry="4.1667" style="stroke:#2FA4E7;stroke-width:1.0416666666666667;" width="144.7917" x="902.6042" y="288.5417"/><rect fill="url(#g1cya8b2ecnstq1)" height="10.4167" style="stroke:#2FA4E7;stroke-width:1.0416666666666667;" width="15.625" x="1026.5625" y="293.75"/><rect fill="url(#g1cya8b2ecnstq1)" height="2.0833" style="stroke:#2FA4E7;stroke-width:1.0416666666666667;" width="4.1667" x="1024.4792" y="295.8333"/><rect fill="url(#g1cya8b2ecnstq1)" height="2.0833" style="stroke:#2FA4E7;stroke-width:1.0416666666666667;" width="4.1667" x="1024.4792" y="300"/><text fill="#FFFFFF" font-family="Verdana" font-size="12.5" lengthAdjust="spacing" textLength="92.7083" x="923.4375" y="326.1861">EBIS Hardware</text></g><!--entity SharedMem--><g id="elem_SharedMem"><rect fill="url(#g1cya8b2ecnstq1)" height="56.2174" rx="4.1667" ry="4.1667" style="stroke:#2FA4E7;stroke-width:1.0416666666666667;" width="152.0833" x="267.7083" y="288.5417"/><rect fill="url(#g1cya8b2ecnstq1)" height="10.4167" style="stroke:#2FA4E7;stroke-width:1.0416666666666667;" width="15.625" x="398.9583" y="293.75"/><rect fill="url(#g1cya8b2ecnstq1)" height="2.0833" style="stroke:#2FA4E7;stroke-width:1.0416666666666667;" width="4.1667" x="396.875" y="295.8333"/><rect fill="url(#g1cya8b2ecnstq1)" height="2.0833" style="stroke:#2FA4E7;stroke-width:1.0416666666666667;" width="4.1667" x="396.875" y="300"/><text fill="#FFFFFF" font-family="Verdana" font-size="12.5" lengthAdjust="spacing" textLength="100" x="288.5417" y="326.1861">Shared Memory</text></g><!--link CMOSProc to SharedMem--><g id="link_CMOSProc_SharedMem"><path d="M438.2604,168.9031 C430.9958,186.3135 420.6802,209.1104 409.375,228.125 C396.7594,249.3427 383.9397,266.6962 370.5314,283.4421 " fill="none" id="CMOSProc-to-SharedMem" style="stroke:#2FA4E7;stroke-width:3.125;"/><polygon fill="#2FA4E7" points="366.625,288.3208,375.7371,283.607,369.8803,284.2552,369.2321,278.3984,366.625,288.3208" style="stroke:#2FA4E7;stroke-width:3.125;"/><text fill="#343A40" font-family="Verdana" font-size="12.5" lengthAdjust="spacing" textLength="115.625" x="430.2083" y="219.9361">Writes Image Data</text></g><!--link EBISProc to SharedMem--><g id="link_EBISProc_SharedMem"><path d="M644.2,169.0208 C621.8,187.3531 590.5552,211.15 560.4167,228.125 C515.8802,253.2094 468.5709,272.663 426.0418,288.1203 " fill="none" id="EBISProc-to-SharedMem" style="stroke:#2FA4E7;stroke-width:3.125;"/><polygon fill="#2FA4E7" points="420.1677,290.2552,430.4021,290.9688,425.0628,288.4761,427.5555,283.1368,420.1677,290.2552" style="stroke:#2FA4E7;stroke-width:3.125;"/><text fill="#343A40" font-family="Verdana" font-size="12.5" lengthAdjust="spacing" textLength="115.625" x="607.2917" y="219.9361">Writes Image Data</text></g><!--reverse link SharedMem to RenderProc--><g id="link_SharedMem_RenderProc"><path d="M261.2091,314.2564 C196.1237,308.9682 112.2917,290.3792 66.6667,228.125 C36.457,186.9052 103.7498,164.0729 162.7896,152.374 " fill="none" id="SharedMem-backto-RenderProc" style="stroke:#2FA4E7;stroke-width:3.125;"/><polygon fill="#2FA4E7" points="267.4385,314.7625,258.4318,309.8503,262.2473,314.3407,257.7569,318.1563,267.4385,314.7625" style="stroke:#2FA4E7;stroke-width:3.125;"/><text fill="#343A40" font-family="Verdana" font-size="12.5" lengthAdjust="spacing" textLength="113.5417" x="72.9167" y="219.9361">Reads Image Data</text></g><!--reverse link RenderProc to SharedMem--><g id="link_RenderProc_SharedMem"><path d="M227.103,175.1543 C222.4405,192.8574 221.2229,209.8573 230.2083,228.125 C242.7844,253.6948 266.825,273.8948 289.5583,288.4146 " fill="none" id="RenderProc-backto-SharedMem" style="stroke:#2FA4E7;stroke-width:3.125;"/><polygon fill="#2FA4E7" points="228.6948,169.1104,222.2778,177.1151,227.3683,174.147,230.3364,179.2375,228.6948,169.1104" style="stroke:#2FA4E7;stroke-width:3.125;"/><text fill="#343A40" font-family="Verdana" font-size="12.5" lengthAdjust="spacing" textLength="158.3333" x="236.4583" y="219.9361">Provides Data for Display</text></g><!--link EBISProc to Micro--><g id="link_EBISProc_Micro"><path d="M721.4625,168.9698 C732.5031,178.0156 742.874,189.1396 748.9583,202.0833 C762.4813,230.849 748.4645,259.8386 731.4864,283.0938 " fill="none" id="EBISProc-to-Micro" style="stroke:#2FA4E7;stroke-width:3.125;"/><polygon fill="#2FA4E7" points="727.801,288.1417,736.6943,283.0268,730.8722,283.9351,729.9638,278.113,727.801,288.1417" style="stroke:#2FA4E7;stroke-width:3.125;"/><text fill="#343A40" font-family="Verdana" font-size="12.5" lengthAdjust="spacing" textLength="118.75" x="759.375" y="219.9361">Sends 't' Character</text></g><!--link Micro to EBISHardware--><g id="link_Micro_EBISHardware"><path d="M777.8156,316.6667 C816.5052,316.6667 857.5063,316.6667 896.0542,316.6667 " fill="none" id="Micro-to-EBISHardware" style="stroke:#2FA4E7;stroke-width:3.125;"/><polygon fill="#2FA4E7" points="902.3042,316.6667,892.9292,312.5,897.0958,316.6667,892.9292,320.8333,902.3042,316.6667" style="stroke:#2FA4E7;stroke-width:3.125;"/><text fill="#343A40" font-family="Verdana" font-size="12.5" lengthAdjust="spacing" textLength="76.0417" x="802.0833" y="305.3528">Sends Pulse</text></g><!--reverse link EBISProc to EBISHardware--><g id="link_EBISProc_EBISHardware"><path d="M774.9994,154.7454 C815.7275,163.3162 856.3229,176.7729 892.7083,202.0833 C924.2844,224.049 948.2302,262.151 961.9365,288.1042 " fill="none" id="EBISProc-backto-EBISHardware" style="stroke:#2FA4E7;stroke-width:3.125;"/><polygon fill="#2FA4E7" points="768.8833,153.4583,777.1994,159.4663,773.98,154.5309,778.9154,151.3116,768.8833,153.4583" style="stroke:#2FA4E7;stroke-width:3.125;"/><text fill="#343A40" font-family="Verdana" font-size="12.5" lengthAdjust="spacing" textLength="110.4167" x="927.0833" y="219.9361">Sends Event Data</text></g><!--SRC=[bPA_Ri8m4CRtFCMLXIalm52f3KWWDIeYGuUgmyavY5N7HcS7YYhUlRP3_Y6MUlFdt_VT-UmdLr5D88WRHQYJv8ZY6my4ixKyLEaRdKX1SR6EQdXXKKb7mZLCC_XDmAyzexVFjcm4MKksqyFwpFBt0Z8FCCAD-0Aq4FIm7yZLw-OX6VGfkIDT4a-WLkgnQpBkR8rSdf49K9Um-d746XLafguRBGKwQVIavrmA7sIqOwCKSImGjRjckzo-pKvuq4DHURs4d6h3bqcroKcCQXKlZ7EwWK5QchDEdmSA5l31_b4iREhmR4jq62tTvFvX6UO8gQAzkpFj2Ck9vwuE-myJF75QdYzyd8MvcqFcKr3uqKT7UzxZuzdrhcsZBFNv_N7Q76-EMBAZLoVIRhZ7q7JBZ-wr21_d94j_-O33tZ0ifJqgl2JNFm00]--></g></svg>